<svg width="411" height="232" viewBox="0 0 411 232" fill="none" xmlns="http://www.w3.org/2000/svg">
<path fill-rule="evenodd" clip-rule="evenodd" d="M237.57 73.2374H274.402V110.671H293.023C301.625 110.671 310.469 109.148 318.614 106.404C322.617 105.054 327.107 103.177 331.055 100.815C325.856 94.0672 323.201 85.5447 322.422 77.1452C321.359 65.7185 323.679 50.848 331.456 41.9057L335.329 37.4534L339.942 41.1415C351.558 50.4183 361.327 63.3833 363.049 78.1636C377.034 74.0737 393.457 75.0412 405.783 82.1141L410.841 85.0167L408.18 90.1823C397.754 110.412 375.956 116.68 354.645 115.569C322.757 194.535 253.332 231.919 169.156 231.919C125.666 231.919 85.7671 215.757 63.0465 177.395L62.6737 176.77L59.3634 170.073C51.6837 153.187 49.1321 134.689 50.8623 116.204L51.3819 110.668H82.879V73.2374H119.709V36.6187H193.373V0H237.572V73.2374" fill="#364548"/>
<path fill-rule="evenodd" clip-rule="evenodd" d="M356.895 87.0831C359.365 67.9998 345.001 53.0129 336.095 45.8958C325.829 57.6947 324.235 88.6197 340.339 101.639C331.351 109.576 312.412 116.77 293.022 116.77H56.9737C55.0884 136.895 58.6429 155.429 66.7596 171.291L69.4449 176.177C71.1454 179.043 73.0026 181.814 75.01 184.478C84.7151 185.098 93.6631 185.311 101.847 185.13H101.851C117.937 184.778 131.063 182.889 141.011 179.461C142.507 178.999 144.097 179.829 144.562 181.316C145.006 182.736 144.265 184.255 142.868 184.788C141.544 185.245 140.165 185.672 138.741 186.077H138.736C130.903 188.3 122.503 189.797 111.666 190.462C112.311 190.473 110.997 190.558 110.993 190.558C110.624 190.583 110.16 190.635 109.791 190.655C105.526 190.895 100.922 190.944 96.2164 190.944C91.0686 190.944 86 190.847 80.331 190.56L80.1858 190.657C99.8534 212.635 130.605 225.816 169.153 225.816C250.735 225.816 319.932 189.86 350.575 109.14C372.314 111.358 393.207 105.845 402.709 87.3996C387.573 78.7132 368.105 81.4813 356.895 87.0831Z" fill="#22A0C8"/>
<path fill-rule="evenodd" clip-rule="evenodd" d="M356.895 87.0835C359.365 68 345.002 53.0129 336.095 45.8958C325.829 57.6948 324.235 88.6201 340.339 101.639C331.351 109.576 312.413 116.771 293.022 116.771H70.9525C69.9893 147.593 81.4939 170.989 101.846 185.133H101.851C117.938 184.781 131.063 182.891 141.011 179.464C142.507 179.002 144.097 179.831 144.562 181.319C145.006 182.739 144.265 184.257 142.868 184.79C141.544 185.248 140.165 185.674 138.741 186.079H138.737C130.904 188.303 121.782 189.992 110.944 190.656C110.941 190.656 110.682 190.409 110.678 190.409C138.443 204.569 178.7 204.518 224.857 186.889C276.61 167.12 324.77 129.46 358.372 86.3865C357.867 86.6128 357.374 86.8457 356.895 87.0835Z" fill="#37B1D9"/>
<path fill-rule="evenodd" clip-rule="evenodd" d="M57.437 141.228C58.9033 152.009 62.0751 162.102 66.7793 171.297L69.4645 176.183C71.165 179.049 73.0223 181.821 75.0296 184.484C84.7364 185.104 93.6844 185.317 101.87 185.137C117.957 184.784 131.083 182.895 141.031 179.467C142.527 179.005 144.117 179.835 144.582 181.322C145.025 182.742 144.285 184.261 142.888 184.794C141.563 185.251 140.184 185.678 138.761 186.083H138.756C130.923 188.306 121.85 189.899 111.013 190.565C110.64 190.588 109.992 190.593 109.616 190.612C105.354 190.85 100.797 190.994 96.0892 190.994C90.9431 190.994 85.6782 190.896 80.0141 190.611C99.6816 212.589 130.625 225.819 169.173 225.819C239.015 225.819 299.779 199.463 335.045 141.226H57.437" fill="#1B81A5"/>
<path fill-rule="evenodd" clip-rule="evenodd" d="M73.0977 141.228C77.2723 160.157 87.3056 175.017 101.872 185.136C117.958 184.784 131.084 182.895 141.032 179.467C142.528 179.005 144.118 179.835 144.583 181.322C145.027 182.742 144.286 184.261 142.889 184.794C141.565 185.251 140.186 185.678 138.762 186.083H138.757C130.924 188.306 121.66 189.899 110.82 190.564C138.582 204.722 178.724 204.518 224.876 186.893C252.797 176.227 279.669 160.349 303.777 141.226H73.0977" fill="#1D91B4"/>
<path fill-rule="evenodd" clip-rule="evenodd" d="M89.0034 79.3404H120.925V111.078H89.0034V79.3404ZM91.6622 81.9855H94.1808V108.433H91.6622V81.9855ZM96.3976 81.9855H99.0184V108.433H96.3992L96.3976 81.9855ZM101.234 81.9855H103.854V108.433H101.234V81.9855ZM106.071 81.9855H108.69V108.433H106.071V81.9855ZM110.909 81.9855H113.528V108.433H110.909V81.9855ZM115.745 81.9855H118.265V108.433H115.745V81.9855ZM125.834 42.722H157.756V74.4585H125.832L125.834 42.722ZM128.494 45.3672H131.011V71.8134H128.494V45.3672ZM133.23 45.3672H135.849V71.8134H133.232L133.23 45.3672ZM138.066 45.3672H140.685V71.8134H138.066V45.3672ZM142.903 45.3672H145.523V71.8134H142.903V45.3672ZM147.739 45.3672H150.36V71.8134H147.739V45.3672ZM152.575 45.3672H155.097V71.8134H152.575V45.3672Z" fill="#23A3C2"/>
<path fill-rule="evenodd" clip-rule="evenodd" d="M125.85 79.3467H157.773V111.085H125.849L125.85 79.3467ZM128.511 81.9918H131.028V108.44H128.511V81.9918ZM133.246 81.9918H135.865V108.44H133.248L133.246 81.9918ZM138.082 81.9918H140.702V108.44H138.082V81.9918ZM142.92 81.9918H145.539V108.44H142.92V81.9918ZM147.756 81.9918H150.377V108.44H147.756V81.9918ZM152.592 81.9918H155.114V108.44H152.592V81.9918Z" fill="#34BBDE"/>
<path fill-rule="evenodd" clip-rule="evenodd" d="M162.682 79.3467H194.604V111.085H162.682V79.3467ZM165.34 81.9918H167.857V108.44H165.34V81.9918ZM170.076 81.9918H172.695V108.44H170.076V81.9918ZM174.914 81.9918H177.533V108.44H174.914V81.9918ZM179.751 81.9918H182.371V108.44H179.751V81.9918ZM184.586 81.9918H187.208V108.44H184.586V81.9918ZM189.423 81.9918H191.942V108.44H189.423V81.9918Z" fill="#23A3C2"/>
<path fill-rule="evenodd" clip-rule="evenodd" d="M162.682 42.722H194.604V74.4585H162.682V42.722ZM165.34 45.3672H167.857V71.8134H165.34V45.3672ZM170.076 45.3672H172.695V71.8134H170.076V45.3672ZM174.914 45.3672H177.533V71.8134H174.914V45.3672ZM179.751 45.3672H182.371V71.8134H179.751V45.3672ZM184.586 45.3672H187.208V71.8134H184.586V45.3672ZM189.423 45.3672H191.942V71.8134H189.423V45.3672ZM199.513 79.3404H231.436V111.078H199.513V79.3404ZM202.173 81.9855H204.69V108.433H202.173V81.9855ZM206.909 81.9855H209.528V108.433H206.909V81.9855ZM211.745 81.9855H214.364V108.433H211.745V81.9855ZM216.583 81.9855H219.204V108.433H216.583V81.9855ZM221.419 81.9855H224.04V108.433H221.419V81.9855ZM226.256 81.9855H228.775V108.433H226.256V81.9855Z" fill="#34BBDE"/>
<path fill-rule="evenodd" clip-rule="evenodd" d="M199.49 42.722H231.413V74.4588H199.49V42.722ZM202.151 45.3672H204.668V71.8136H202.151V45.3672ZM206.886 45.3672H209.505V71.8136H206.886V45.3672ZM211.722 45.3672H214.341V71.8136H211.722V45.3672ZM216.56 45.3672H219.181V71.8136H216.56V45.3672ZM221.396 45.3672H224.017V71.8136H221.396V45.3672ZM226.234 45.3672H228.752V71.8136H226.234V45.3672Z" fill="#23A3C2"/>
<path fill-rule="evenodd" clip-rule="evenodd" d="M236.361 79.3467H268.282V111.085H236.361V79.3467ZM239.018 81.9918H241.538V108.44H239.02L239.018 81.9918ZM243.755 81.9918H246.376V108.44H243.757L243.755 81.9918ZM248.592 81.9918H251.213V108.44H248.592V81.9918ZM253.428 81.9918H256.049V108.44H253.428V81.9918ZM258.265 81.9918H260.885V108.44H258.265V81.9918ZM263.101 81.9918H265.62V108.44H263.101V81.9918Z" fill="#23A3C2"/>
<path fill-rule="evenodd" clip-rule="evenodd" d="M155.754 162.534C160.619 162.471 164.613 166.339 164.678 171.174C164.742 176.01 160.851 179.982 155.987 180.046C155.908 180.047 155.829 180.047 155.749 180.046C150.885 179.98 146.996 176.007 147.062 171.171C147.126 166.427 150.981 162.597 155.754 162.534Z" fill="#D3ECEC"/>
<path fill-rule="evenodd" clip-rule="evenodd" d="M155.767 165.016C156.572 165.016 157.34 165.167 158.049 165.441C156.821 166.151 156.402 167.717 157.116 168.939C157.574 169.726 158.421 170.211 159.334 170.213C160.309 170.213 161.155 169.677 161.592 168.881C162.928 172.079 161.403 175.748 158.186 177.076C154.97 178.404 151.28 176.887 149.944 173.689C148.608 170.492 150.134 166.823 153.35 165.495C154.116 165.178 154.937 165.016 155.767 165.016ZM0 144.387H409.657C400.738 142.139 381.437 139.098 384.619 127.476C368.398 146.137 329.284 140.568 319.413 131.368C308.421 147.219 244.426 141.193 239.962 128.844C226.182 144.925 183.478 144.925 169.696 128.844C165.229 141.193 101.236 147.219 90.2424 131.366C80.3723 140.568 41.2599 146.137 25.0397 127.478C28.223 139.098 8.92164 142.139 0 144.387Z" fill="#364548"/>
<path fill-rule="evenodd" clip-rule="evenodd" d="M179.162 225.629C157.351 215.341 145.383 201.351 138.721 186.083C130.619 188.381 120.883 189.852 109.566 190.483C105.304 190.721 100.819 190.842 96.1167 190.842C90.6918 190.842 84.9749 190.682 78.9727 190.367C98.9735 210.241 123.578 225.541 169.136 225.82C172.501 225.818 175.838 225.754 179.162 225.629Z" fill="#BDD9D7"/>
<path fill-rule="evenodd" clip-rule="evenodd" d="M146.848 200.171C143.832 196.099 140.904 190.981 138.753 186.078C130.651 188.379 120.911 189.85 109.593 190.483C117.367 194.678 128.484 198.564 146.848 200.171Z" fill="#D3ECEC"/>
</svg>
